<svg width="25" height="34" viewBox="0 0 25 34" fill="none" xmlns="http://www.w3.org/2000/svg">
<rect y="2.42859" width="21.8571" height="31.5714" fill="#D1B0FF"/>
<rect width="2.42857" height="34" fill="#4B297C"/>
<rect width="14.5714" height="2.42857" fill="#4B297C"/>
<rect x="21.8572" y="9.71423" width="2.42857" height="24.2857" fill="#4B297C"/>
<rect y="31.5714" width="24.2857" height="2.42857" fill="#4B297C"/>
<rect x="17" width="2.42857" height="2.42857" fill="#4B297C"/>
<rect x="19.4285" y="2.42859" width="2.42857" height="2.42857" fill="#4B297C"/>
<rect x="4.85718" y="21.8572" width="2.42857" height="2.42857" fill="#4B297C"/>
<rect width="2.42857" height="2.42857" transform="matrix(-1 0 0 1 19.4285 21.8572)" fill="#4B297C"/>
<rect x="14.5715" width="2.42857" height="2.42857" fill="#4B297C"/>
<rect x="21.8572" y="7.28577" width="2.42857" height="2.42857" fill="#4B297C"/>
<rect x="21.8572" y="4.85718" width="2.42857" height="2.42857" fill="#4B297C"/>
<rect x="12.1428" width="2.42857" height="12.1429" fill="#4B297C"/>
<rect x="12.1428" y="9.71423" width="12.1429" height="2.42857" fill="#4B297C"/>
<rect x="6.11646" y="7.28577" width="2.33862" height="4.85714" fill="#4B297C"/>
<rect x="7.28564" y="19.4286" width="9.71429" height="2.42857" fill="#4B297C"/>
</svg>
